<svg xmlns="http://www.w3.org/2000/svg" xmlns:xlink="http://www.w3.org/1999/xlink" version="1.1" id="Layer_1" x="0px" y="0px" style="enable-background:new 0 0 418.6 268.5;" xml:space="preserve" viewBox="18.87 109.47 377.83 67.04">
<style type="text/css">
	.st0{fill:#231F20;}
	.st1{fill:#FAA61A;}
	.st2{fill:#F15A22;}
</style>
<path class="st0" d="M127.7,115.6c2.1-0.1,4,1.4,4.6,3.4l6.1,35.2c0,0.1,0.1,0.3,0.3,0.3c0.1,0,0.3-0.1,0.3-0.3l6.8-31.5  c0.9-4.6,4-6.8,7.5-6.8c3.3,0,6.4,2.3,7.4,6.8l7,31.5c0,0.1,0.1,0.3,0.3,0.3c0.1,0,0.3-0.1,0.3-0.3l0,0l6.2-35.2  c0.6-2.5,3-4,5.5-3.4c2.1,0.5,3.6,2.4,3.5,4.6c0,0.2-0.1,0.6-0.1,1.1l-8,35.6c-1.6,9.2-13.1,9.1-15,0.1l-7-30.8  c-0.1-0.3-0.1-0.3-0.3-0.2l-0.1,0.2l-6.8,30.9c-1,4.5-4,6.8-7.5,6.8s-6.8-2.4-7.8-6.9l-7.4-35.6c-0.1-0.4-0.1-0.7-0.1-1.1  c-0.1-2.5,1.8-4.6,4.2-4.7C127.5,115.6,127.6,115.6,127.7,115.6z"/>
<path class="st0" d="M213.2,156.8c0.1,1.3-0.6,2.5-1.6,3.1c-3.6,2.5-8.3,3.7-14.1,3.7c-9.2,0-14.1-5-14.1-11.8  c0-6.2,4.5-10.9,13.8-10.9c2.5,0,5,0.4,7.4,1v-1.8c0-3.6-1.8-5.2-6.4-5.2c-2.2,0.1-4.4,0.4-6.4,1.1c-3.7,1.1-6.2-0.6-6.2-3.5  c0-1.9,1.2-3.5,2.9-4.1c3.1-1.2,6.5-1.8,9.8-1.7c9.8,0,14.8,4.6,14.8,13.6L213.2,156.8z M204.5,154.3v-6c-2.2-0.7-4.4-1.1-6.7-1.1  c-3.5,0-5.8,1.7-5.8,4.4c0,2.9,2.3,4.5,6,4.5C200.3,156.1,202.6,155.5,204.5,154.3L204.5,154.3z"/>
<path class="st0" d="M230.1,163.7c-8,0-12-5.2-12-13.2V124c0-2.5,2-4.5,4.5-4.5s4.5,2,4.5,4.5v4.6h8.3c2.2-0.3,4.2,1.1,4.6,3.3  c0.3,2.2-1.1,4.2-3.3,4.6c-0.4,0.1-0.8,0.1-1.3,0H227v13.8c0,3.3,1.5,4.9,4.4,4.9c1.4-0.1,2.8-0.3,4.2-0.7c3.2-0.8,5.6,1.1,5.6,3.8  c0,1.8-1.1,3.4-2.8,3.9C235.6,163.3,232.8,163.8,230.1,163.7z"/>
<path class="st0" d="M271.8,156.8c0.1,1.3-0.6,2.5-1.6,3.1c-3.6,2.5-8.3,3.7-14.1,3.7c-9.2,0-14.1-5-14.1-11.8  c0-6.2,4.5-10.9,13.8-10.9c2.5,0,5,0.4,7.4,1v-1.8c0-3.6-1.8-5.2-6.4-5.2c-2.2,0.1-4.4,0.4-6.4,1.1c-3.7,1.1-6.2-0.6-6.2-3.5  c0-1.9,1.2-3.5,2.9-4.1c3.1-1.2,6.5-1.8,9.8-1.7c9.8,0,14.8,4.6,14.8,13.6L271.8,156.8z M263.1,154.3v-6c-2.2-0.7-4.4-1.1-6.7-1.1  c-3.5,0-5.8,1.7-5.8,4.4c0,2.9,2.3,4.5,6,4.5C258.9,156.1,261.2,155.5,263.1,154.3L263.1,154.3z"/>
<path class="st0" d="M285.9,158.9c0.1,2.5-1.8,4.5-4.3,4.6c-0.1,0-0.2,0-0.2,0c-2.5-0.1-4.5-2.1-4.5-4.6v-39c0-2.5,2-4.5,4.5-4.5  s4.5,2,4.5,4.5V158.9z"/>
<path class="st0" d="M318.7,159.9c-3.1,2.6-7,4-11,3.8c-4,0.1-7.9-1.3-11-3.8c-2.9-2.4-4.8-6-5-9.8c-0.2-3.2-0.2-6.4,0-9.6  c0.2-3.8,2-7.4,5-9.8c3.1-2.6,7.1-3.9,11.1-3.8c4-0.1,8,1.2,11,3.8c2.9,2.5,4.7,6,5,9.8c0.2,3.2,0.2,6.3,0,9.5  C323.5,153.9,321.7,157.4,318.7,159.9z M314.8,141.9c-0.2-3.8-2.9-6.5-7.1-6.5c-3.7-0.2-6.9,2.6-7.2,6.3c0,0.1,0,0.1,0,0.2  c-0.2,2.2-0.2,4.5,0,6.7c0.1,3.7,3.3,6.6,7,6.5c0.1,0,0.1,0,0.2,0c4.1,0,6.8-2.6,7.1-6.5C315,146.4,315,144.2,314.8,141.9z"/>
<path class="st0" d="M358.8,161.1c0,4.9-1.5,8.7-4.6,11.4c-3.3,2.7-7.4,4.2-11.6,4c-3.5,0-7-0.8-10.2-2.3c-2.6-1.3-4-3-4-4.9  c0-2.2,1.7-4,3.9-4.1l0,0c1.4,0.1,2.8,0.5,4,1.3c1.9,1,4.1,1.6,6.3,1.6c4.4,0,7.2-2.4,7.2-6.8v-0.4c-2.6,1.2-5.4,1.8-8.3,1.7  c-8.5,0-13.5-5.3-14.2-13.3c-0.3-2.9-0.3-5.7,0-8.6c0.8-8.3,6.4-13.9,15.8-13.9c2.8,0,5.6,0.4,8.2,1.3c2.1,0.6,4,1.5,5.8,2.8  c1.1,0.7,1.7,1.9,1.6,3.2v27H358.8z M336.3,142.1c-0.1,1.9-0.1,3.8,0,5.7c0.3,4.4,2.5,6.6,6.6,6.6c2.5,0.1,4.9-0.6,7-2v-15.1  c-0.8-0.7-3.7-1.8-6.6-1.8C338.9,135.4,336.6,137.6,336.3,142.1L336.3,142.1z"/>
<path class="st0" d="M363.2,133.6c-0.7-1.5-0.6-3.2,0.3-4.6c0.9-1.3,2.4-2.1,4-2.1c2.2,0,3.8,1.1,4.6,3.5l7.4,19  c0.2,0.5,0.6,0.5,0.8,0l7-19c0.9-2.4,2.4-3.5,4.6-3.5c1.6-0.1,3.1,0.8,4,2.1s1.1,3.1,0.3,4.6l-12.5,29.1c-2.6,6.1-5.6,10.2-8.9,12.4  c-1.1,0.8-2.4,1.2-3.7,1.3c-2.3,0.1-4.4-1.7-4.5-4c0-0.1,0-0.1,0-0.2c0-1.5,0.8-2.8,2-3.6c2.9-2,5-4.9,6.2-8.2L363.2,133.6z"/>
<path class="st1" d="M84.8,145.2l21.4,14.5c1.3,0.9,2.2,2.3,2.3,3.9c0.3,2.9-1.9,5.5-4.8,5.7c-1.2,0.1-2.4-0.2-3.4-0.9l-6.1-4.1  l-20.7-14l-5.4-3.6c-2.4-1.6-3-4.9-1.4-7.3c0.2-0.3,0.4-0.6,0.7-0.8l27.9-27c2.1-2,5.4-2,7.5,0.1c0.8,0.9,1.4,2,1.5,3.2  c0.1,1.6-0.4,3.1-1.6,4.3l-18.5,18c-2.1,2.1-2.1,5.4,0,7.5C84.3,144.8,84.4,145,84.8,145.2z"/>
<path class="st2" d="M43.3,144c2-2.1,2-5.4-0.1-7.5l-18.5-17.9c-1.1-1.1-1.7-2.7-1.6-4.3l0,0c0.1-1.2,0.6-2.3,1.5-3.2  c2-2.1,5.4-2.2,7.5-0.1L60,138c0.3,0.3,0.5,0.5,0.7,0.8c1.6,2.4,1,5.7-1.4,7.3l-32.2,21.8c-1,0.7-2.2,1-3.4,0.9  c-2.9-0.3-5.1-2.8-4.8-5.7l0,0c0.1-1.6,1-3,2.3-3.9l21.4-14.5C42.8,144.5,43.1,144.2,43.3,144z"/>
</svg>