<?xml version="1.0" encoding="utf-8"?>
<!-- Generator: Adobe Illustrator 21.0.2, SVG Export Plug-In . SVG Version: 6.00 Build 0)  -->
<svg version="1.1" id="Layer_1" xmlns="http://www.w3.org/2000/svg" xmlns:xlink="http://www.w3.org/1999/xlink" x="0px" y="0px"
	 viewBox="0 0 511.8 511.8" style="enable-background:new 0 0 511.8 511.8;" xml:space="preserve">
<style type="text/css">
	.st0{fill:#FAA61A;}
	.st1{fill:#FFFFFF;}
</style>
<g>
	<rect x="3.9" y="64.4" class="st0" width="395.9" height="395.9"/>
	<path class="st1" d="M287.5,172.7c-5.7,0-10.6,4.4-11.8,10.5c0,0-8.6,64.6-18.7,115c-12.9-39.8-25.8-82.7-26-83.2
		c-1.4-4.4-4.8-6.6-8.3-6.8h-41.8c-3.5,0.2-6.9,2.4-8.3,6.8c-0.2,0.5-13.1,43.4-26,83.2c-10.1-50.5-18.7-115-18.7-115
		c-1.1-6.1-6.1-10.5-11.8-10.5H80.4c0,0,16.3,130.7,32.3,172.5c1.7,4.4,5.1,6.7,8.7,6.8l45.4,0c3.6-0.1,6.8-2.4,8.6-6.8
		c10-23.7,18.1-56.2,26.4-84.7h0c8.3,28.5,16.4,60.9,26.4,84.7c1.8,4.3,5,6.7,8.6,6.8l45.4,0c3.6-0.1,7-2.4,8.7-6.8
		c16-41.8,32.3-172.5,32.3-172.5H287.5z"/>
	<path class="st0" d="M418.6,85.2c0,3.3,2.2,6.1,5.4,6.8c0,0,33,5,58.7,10.8c-20.3,7.4-42.2,14.9-42.5,15c-2.2,0.8-3.4,2.8-3.5,4.8
		l0,24.1c0.1,2,1.2,4,3.5,4.8c0.3,0.1,22.2,7.6,42.5,15c-25.8,5.8-58.7,10.8-58.7,10.8c-3.1,0.7-5.4,3.5-5.4,6.8l0,20.6
		c0,0,66.7-9.4,88.1-18.6c2.3-1,3.4-2.9,3.5-5l0-26.1c0-2.1-1.2-3.9-3.5-5c-12.1-5.8-28.7-10.4-43.2-15.2v0
		c14.6-4.8,31.1-9.4,43.2-15.2c2.2-1.1,3.4-2.9,3.5-5l0-26.1c0-2.1-1.2-4-3.5-5c-21.4-9.2-88.1-18.6-88.1-18.6L418.6,85.2z"/>
</g>
</svg>
